<svg xmlns="http://www.w3.org/2000/svg" width="16" height="16" fill="none" viewBox="0 0 16 16" class="w-4 h-4"><path stroke="#fff" stroke-linecap="round" stroke-linejoin="round" stroke-opacity=".95" stroke-width="1.6" d="M8 13.6c-.693 0-2.4-2.507-2.4-5.6 0-3.092 1.707-5.6 2.4-5.6m0 11.2a5.602 5.602 0 0 1-5.368-4M8 13.6a5.602 5.602 0 0 0 5.368-4M8 2.4a5.602 5.602 0 0 0-5.368 4M8 2.4a5.602 5.602 0 0 1 5.368 4M2.632 9.6A5.601 5.601 0 0 1 2.4 8c0-.556.081-1.093.232-1.6m0 3.2h10.736m0 0A5.6 5.6 0 0 0 13.6 8a5.6 5.6 0 0 0-.232-1.6m-10.736 0h10.736"></path></svg>