<svg xmlns="http://www.w3.org/2000/svg" width="16" height="16" fill="none" viewBox="0 0 16 16" class="w-4 h-4 active"><path stroke="#FFFFFF" stroke-linecap="round" stroke-linejoin="round" stroke-width="1.6" d="M8 13.6a5.6 5.6 0 0 1-5.499-6.666M8 13.6c.713 0 1.396-.133 2.023-.376M8 13.6c-.346 0-.946-.626-1.46-1.64a8.923 8.923 0 0 1-.845-2.685M8 2.4c-2.728 0-5 1.951-5.499 4.534M8 2.4c2.728 0 5 1.951 5.499 4.534M8 2.4c-.693 0-2.4 2.508-2.4 5.6 0 .439.034.866.095 1.275m-3.194-2.34c.348.934 1.563 1.864 3.194 2.34m7.804-2.34c.066.344.101.7.101 1.065a5.582 5.582 0 0 1-1.64 3.96m1.539-5.026c-.405 1.089-1.985 2.17-4.029 2.536m-3.775-.195c.166.048.336.092.51.13m3.265.065a8.354 8.354 0 0 1-3.265-.065m3.265.065 2.49 2.49M6.205 9.405l3.818 3.819m1.937-1.264a5.605 5.605 0 0 1-1.937 1.264"></path></svg>